<svg width="32" height="32" viewBox="0 0 32 32" fill="none" xmlns="http://www.w3.org/2000/svg">
<g id="Linear / Notifications / Bell ">
<path id="Vector" d="M24.9988 12.9459V12.0065C24.9988 6.84814 20.9699 2.6665 16 2.6665C11.0301 2.6665 7.00116 6.84814 7.00116 12.0065V12.9459C7.00116 14.0734 6.67962 15.1756 6.07706 16.1137L4.60048 18.4125C3.25176 20.5123 4.2814 23.3664 6.62715 24.0304C12.7637 25.7674 19.2363 25.7674 25.3729 24.0304C27.7186 23.3664 28.7482 20.5123 27.3995 18.4125L25.9229 16.1137C25.3204 15.1756 24.9988 14.0734 24.9988 12.9459Z" stroke="#F4F7FF" stroke-width="2"/>
<path id="Vector_2" d="M10 25.3335C10.8734 27.6639 13.2299 29.3335 16 29.3335C18.7701 29.3335 21.1266 27.6639 22 25.3335" stroke="#F4F7FF" stroke-width="2" stroke-linecap="round"/>
</g>
</svg>
