<svg width="32" height="32" viewBox="0 0 32 32" fill="none" xmlns="http://www.w3.org/2000/svg">
<g id="Linear / Shopping, Ecommerce / Cart Large Minimalistic">
<path id="Vector" d="M10 24C11.1046 24 12 24.8954 12 26C12 27.1046 11.1046 28 10 28C8.89543 28 8 27.1046 8 26C8 24.8954 8.89543 24 10 24Z" stroke="#F4F7FF" stroke-width="2"/>
<path id="Vector_2" d="M22 24.0001C23.1046 24.0001 24 24.8955 24 26.0001C24 27.1047 23.1046 28.0001 22 28.0001C20.8954 28.0001 20 27.1047 20 26.0001C20 24.8955 20.8954 24.0001 22 24.0001Z" stroke="#F4F7FF" stroke-width="2"/>
<path id="Vector_3" d="M3.01527 4.12245L3.34695 3.17905H3.34695L3.01527 4.12245ZM2.99867 3.05661C2.47765 2.87343 1.90678 3.1473 1.7236 3.66832C1.54042 4.18934 1.81429 4.76021 2.33531 4.94339L2.99867 3.05661ZM6.11478 5.76398L6.94041 5.19977V5.19977L6.11478 5.76398ZM7.85062 19.4482L7.12493 20.1363L7.85062 19.4482ZM27.544 13.177L28.5234 13.3789L28.5247 13.3727L27.544 13.177ZM26.8777 16.41L27.8571 16.6118V16.6118L26.8777 16.41ZM27.6463 8.92944L26.8537 9.53918L27.6463 8.92944ZM25.5118 20.0672L24.8801 19.292L24.8801 19.292L25.5118 20.0672ZM7.6111 13.0133V9.38448H5.6111V13.0133H7.6111ZM3.34695 3.17905L2.99867 3.05661L2.33531 4.94339L2.68359 5.06584L3.34695 3.17905ZM14.5836 21.6667H21.6541V19.6667H14.5836V21.6667ZM7.6111 9.38448C7.6111 8.4416 7.61246 7.65479 7.54325 7.01542C7.47161 6.35358 7.31639 5.74996 6.94041 5.19977L5.28914 6.32818C5.40949 6.50429 5.50243 6.74619 5.55487 7.23065C5.60974 7.73759 5.6111 8.39788 5.6111 9.38448H7.6111ZM2.68359 5.06584C3.57374 5.3788 4.15874 5.5862 4.5892 5.79741C4.9935 5.99579 5.17173 6.15636 5.28914 6.32818L6.94041 5.19977C6.56151 4.64529 6.05771 4.29017 5.4702 4.0019C4.90885 3.72646 4.19226 3.47625 3.34695 3.17905L2.68359 5.06584ZM5.6111 13.0133C5.6111 14.95 5.62927 16.3465 5.81201 17.4135C6.00711 18.5526 6.39661 19.3681 7.12493 20.1363L8.5763 18.7602C8.14941 18.3099 7.91916 17.8691 7.7833 17.0758C7.63509 16.2105 7.6111 14.9987 7.6111 13.0133H5.6111ZM14.5836 19.6667C12.6946 19.6667 11.3838 19.6643 10.3963 19.5243C9.44319 19.3891 8.93969 19.1435 8.5763 18.7602L7.12493 20.1363C7.91674 20.9714 8.92048 21.335 10.1155 21.5045C11.276 21.669 12.7541 21.6667 14.5836 21.6667V19.6667ZM6.6111 9.16H22.7854V7.16H6.6111V9.16ZM26.5646 12.9751L25.8983 16.2081L27.8571 16.6118L28.5234 13.3789L26.5646 12.9751ZM22.7854 9.16C23.9273 9.16 24.9322 9.16134 25.7253 9.24999C26.1194 9.29404 26.4143 9.35524 26.6215 9.42806C26.8367 9.50369 26.871 9.56169 26.8537 9.53918L28.4389 8.31971C28.1257 7.91247 27.6852 7.68194 27.2845 7.54116C26.8759 7.39757 26.4138 7.3145 25.9475 7.26237C25.0197 7.15866 23.8902 7.16 22.7854 7.16V9.16ZM28.5247 13.3727C28.7503 12.2422 28.9419 11.2937 28.9888 10.5338C29.037 9.75224 28.9481 8.98156 28.4389 8.31971L26.8537 9.53918C26.9365 9.64677 27.0278 9.8405 26.9926 10.4106C26.9561 11.0025 26.8005 11.793 26.5634 12.9813L28.5247 13.3727ZM21.6541 21.6667C22.6698 21.6667 23.522 21.6684 24.2091 21.5843C24.9234 21.4969 25.5749 21.3058 26.1435 20.8424L24.8801 19.292C24.7131 19.4281 24.4764 19.5367 23.9662 19.5991C23.4286 19.6649 22.7199 19.6667 21.6541 19.6667V21.6667ZM25.8983 16.2081C25.6831 17.2519 25.5383 17.9457 25.3654 18.4589C25.2012 18.946 25.0471 19.1559 24.8801 19.292L26.1435 20.8424C26.7122 20.379 27.0309 19.7795 27.2607 19.0976C27.4817 18.4416 27.6521 17.6065 27.8571 16.6118L25.8983 16.2081Z" fill="#F4F7FF"/>
</g>
</svg>
