<svg width="30" height="30" viewBox="0 0 30 30" fill="none" xmlns="http://www.w3.org/2000/svg">
<g id="Bold / Like / Dislike">
<path id="Vector" d="M25.3373 10.6063L26.2192 15.706C26.4395 16.9797 25.46 18.1447 24.1688 18.1447H17.6924C17.0505 18.1447 16.5617 18.7209 16.6656 19.355L17.494 24.4107C17.6286 25.2321 17.5901 26.0725 17.3811 26.8781C17.208 27.5455 16.6931 28.0813 16.016 28.2988L15.8348 28.3571C15.4255 28.4885 14.9789 28.4579 14.593 28.272C14.1684 28.0674 13.8577 27.6941 13.7425 27.2501L13.1479 24.9578C12.9587 24.2285 12.6831 23.5244 12.3277 22.8592C11.8085 21.8873 11.0058 21.1094 10.1714 20.3904L8.37297 18.8406C7.8659 18.4037 7.5996 17.7493 7.6573 17.082L8.67251 5.34116C8.76563 4.26424 9.666 3.4375 10.7457 3.4375H16.5565C20.9081 3.4375 24.6219 6.46951 25.3373 10.6063Z" fill="#FF01DD"/>
<path id="Vector_2" fill-rule="evenodd" clip-rule="evenodd" d="M3.70958 19.0814C4.21116 19.103 4.64077 18.7257 4.68401 18.2255L5.89851 4.17986C5.97653 3.27762 5.26585 2.5 4.35838 2.5C3.50361 2.5 2.8125 3.19343 2.8125 4.04657V18.1447C2.8125 18.6468 3.208 19.0597 3.70958 19.0814Z" fill="#FF01DD"/>
</g>
</svg>
