<svg width="189" height="43" viewBox="0 0 189 43" fill="none" xmlns="http://www.w3.org/2000/svg">
<g id="Frame 3946">
<g id="Group 24">
<path id="E" d="M0 9.74427C0 8.36827 0.4 7.28027 1.2 6.48027C2 5.68027 3.088 5.28027 4.464 5.28027H20.304C20.528 5.63227 20.72 6.09627 20.88 6.67227C21.072 7.24827 21.168 7.85627 21.168 8.49627C21.168 9.71227 20.896 10.5763 20.352 11.0883C19.84 11.6003 19.152 11.8563 18.288 11.8563H8.16V16.3203H18.96C19.184 16.6723 19.376 17.1363 19.536 17.7123C19.728 18.2563 19.824 18.8483 19.824 19.4883C19.824 20.7043 19.568 21.5683 19.056 22.0803C18.544 22.5923 17.856 22.8483 16.992 22.8483H8.16V27.8883H20.496C20.72 28.2403 20.912 28.7043 21.072 29.2803C21.264 29.8563 21.36 30.4643 21.36 31.1043C21.36 32.3203 21.088 33.2003 20.544 33.7443C20.032 34.2563 19.344 34.5123 18.48 34.5123H4.464C3.088 34.5123 2 34.1123 1.2 33.3123C0.4 32.5123 0 31.4243 0 30.0483V9.74427Z" fill="#FF01DD"/>
<path id="p" d="M36.0644 10.1279C37.9844 10.1279 39.7604 10.3839 41.3924 10.8959C43.0564 11.3759 44.4804 12.1279 45.6644 13.1519C46.8484 14.1759 47.7764 15.4719 48.4484 17.0399C49.1204 18.5759 49.4564 20.4159 49.4564 22.5599C49.4564 24.6079 49.1684 26.3999 48.5924 27.9359C48.0164 29.4719 47.2004 30.7679 46.1444 31.8239C45.0884 32.8479 43.8084 33.6159 42.3044 34.1279C40.8324 34.6399 39.1844 34.8959 37.3604 34.8959C35.9844 34.8959 34.7044 34.6879 33.5204 34.2719V42.2399C33.2004 42.3359 32.6884 42.4319 31.9844 42.5279C31.2804 42.6559 30.5604 42.7199 29.8244 42.7199C29.1204 42.7199 28.4804 42.6719 27.9044 42.5759C27.3604 42.4799 26.8964 42.2879 26.5124 41.9999C26.1284 41.7119 25.8404 41.3119 25.6484 40.7999C25.4564 40.3199 25.3604 39.6799 25.3604 38.8799V15.8399C25.3604 14.9759 25.5364 14.2719 25.8884 13.7279C26.2724 13.1839 26.7844 12.6879 27.4244 12.2399C28.4164 11.5999 29.6484 11.0879 31.1204 10.7039C32.5924 10.3199 34.2404 10.1279 36.0644 10.1279ZM36.1604 28.4639C39.4564 28.4639 41.1044 26.4959 41.1044 22.5599C41.1044 20.5119 40.6884 18.9919 39.8564 17.9999C39.0564 17.0079 37.8884 16.5119 36.3524 16.5119C35.7444 16.5119 35.2004 16.5919 34.7204 16.7519C34.2404 16.8799 33.8244 17.0399 33.4724 17.2319V27.7919C33.8564 27.9839 34.2724 28.1439 34.7204 28.2719C35.1684 28.3999 35.6484 28.4639 36.1604 28.4639Z" fill="#FF01DD"/>
<path id="i" d="M53.4561 4.32C53.4561 3.104 53.8561 2.08 54.6561 1.248C55.4881 0.415999 56.5761 0 57.9201 0C59.2641 0 60.3361 0.415999 61.1361 1.248C61.9681 2.08 62.3841 3.104 62.3841 4.32C62.3841 5.536 61.9681 6.56 61.1361 7.392C60.3361 8.224 59.2641 8.64 57.9201 8.64C56.5761 8.64 55.4881 8.224 54.6561 7.392C53.8561 6.56 53.4561 5.536 53.4561 4.32ZM62.0001 34.08C61.6481 34.144 61.1201 34.224 60.4161 34.32C59.7441 34.448 59.0561 34.512 58.3521 34.512C57.6481 34.512 57.0081 34.464 56.4321 34.368C55.8881 34.272 55.4241 34.08 55.0401 33.792C54.6561 33.504 54.3521 33.12 54.1281 32.64C53.9361 32.128 53.8401 31.472 53.8401 30.672V11.136C54.1921 11.072 54.7041 10.992 55.3761 10.896C56.0801 10.768 56.7841 10.704 57.4881 10.704C58.1921 10.704 58.8161 10.752 59.3601 10.848C59.9361 10.944 60.4161 11.136 60.8001 11.424C61.1841 11.712 61.4721 12.112 61.6641 12.624C61.8881 13.104 62.0001 13.744 62.0001 14.544V34.08Z" fill="#FF01DD"/>
<path id="c" d="M80.5438 16.1761C79.7438 16.1761 78.9758 16.3041 78.2398 16.5601C77.5358 16.8161 76.9118 17.2001 76.3678 17.7121C75.8558 18.1921 75.4398 18.8001 75.1198 19.5361C74.7998 20.2721 74.6398 21.1361 74.6398 22.1281C74.6398 24.1121 75.1998 25.6001 76.3198 26.5921C77.4718 27.5841 78.8638 28.0801 80.4958 28.0801C81.4558 28.0801 82.2878 27.9681 82.9918 27.7441C83.6958 27.5201 84.3198 27.2801 84.8638 27.0241C85.5038 27.4721 85.9838 27.9681 86.3038 28.5121C86.6238 29.0241 86.7838 29.6481 86.7838 30.3841C86.7838 31.6961 86.1598 32.7201 84.9118 33.4561C83.6638 34.1601 81.9358 34.5121 79.7278 34.5121C77.7118 34.5121 75.8878 34.2241 74.2558 33.6481C72.6238 33.0401 71.2158 32.2081 70.0318 31.1521C68.8798 30.0641 67.9838 28.7681 67.3438 27.2641C66.7038 25.7601 66.3838 24.0961 66.3838 22.2721C66.3838 20.1601 66.7198 18.3201 67.3918 16.7521C68.0958 15.1521 69.0398 13.8401 70.2238 12.8161C71.4078 11.7921 72.7678 11.0241 74.3038 10.5121C75.8718 10.0001 77.5198 9.74414 79.2478 9.74414C81.5518 9.74414 83.3278 10.1601 84.5758 10.9921C85.8238 11.8241 86.4478 12.8961 86.4478 14.2081C86.4478 14.8161 86.3038 15.3921 86.0158 15.9361C85.7278 16.4481 85.3918 16.8961 85.0078 17.2801C84.4638 17.0241 83.8078 16.7841 83.0398 16.5601C82.2718 16.3041 81.4398 16.1761 80.5438 16.1761Z" fill="#FF01DD"/>
<path id="L" d="M95.2482 34.5118C93.8722 34.5118 92.7842 34.1118 91.9842 33.3118C91.1842 32.5118 90.7842 31.4238 90.7842 30.0478V5.2318C91.1362 5.16781 91.6962 5.08781 92.4642 4.99181C93.2322 4.8638 93.9682 4.7998 94.6722 4.7998C95.4082 4.7998 96.0482 4.8638 96.5922 4.99181C97.1682 5.08781 97.6482 5.27981 98.0322 5.56781C98.4162 5.85581 98.7042 6.25581 98.8962 6.76781C99.0882 7.27981 99.1842 7.95181 99.1842 8.7838V27.7438H110.176C110.4 28.0958 110.608 28.5758 110.8 29.1838C110.992 29.7598 111.088 30.3678 111.088 31.0078C111.088 32.2878 110.816 33.1998 110.272 33.7438C109.728 34.2558 109.008 34.5118 108.112 34.5118H95.2482Z" fill="white"/>
<path id="o" d="M140.24 22.0803C140.24 24.0643 139.936 25.8403 139.328 27.4083C138.72 28.9443 137.856 30.2403 136.736 31.2963C135.648 32.3523 134.336 33.1523 132.8 33.6963C131.264 34.2403 129.552 34.5123 127.664 34.5123C125.776 34.5123 124.064 34.2243 122.528 33.6483C120.992 33.0723 119.664 32.2563 118.544 31.2003C117.456 30.1123 116.608 28.8003 116 27.2643C115.392 25.7283 115.088 24.0003 115.088 22.0803C115.088 20.1923 115.392 18.4803 116 16.9443C116.608 15.4083 117.456 14.1123 118.544 13.0563C119.664 11.9683 120.992 11.1363 122.528 10.5603C124.064 9.98429 125.776 9.69629 127.664 9.69629C129.552 9.69629 131.264 10.0003 132.8 10.6083C134.336 11.1843 135.648 12.0163 136.736 13.1043C137.856 14.1603 138.72 15.4563 139.328 16.9923C139.936 18.5283 140.24 20.2243 140.24 22.0803ZM123.44 22.0803C123.44 24.0323 123.808 25.5363 124.544 26.5923C125.312 27.6163 126.368 28.1283 127.712 28.1283C129.056 28.1283 130.08 27.6003 130.784 26.5443C131.52 25.4883 131.888 24.0003 131.888 22.0803C131.888 20.1603 131.52 18.6883 130.784 17.6643C130.048 16.6083 129.008 16.0803 127.664 16.0803C126.32 16.0803 125.28 16.6083 124.544 17.6643C123.808 18.6883 123.44 20.1603 123.44 22.0803Z" fill="white"/>
<path id="o_2" d="M169.392 22.0803C169.392 24.0643 169.088 25.8403 168.48 27.4083C167.872 28.9443 167.008 30.2403 165.888 31.2963C164.8 32.3523 163.488 33.1523 161.952 33.6963C160.416 34.2403 158.704 34.5123 156.816 34.5123C154.928 34.5123 153.216 34.2243 151.68 33.6483C150.144 33.0723 148.816 32.2563 147.696 31.2003C146.608 30.1123 145.76 28.8003 145.152 27.2643C144.544 25.7283 144.24 24.0003 144.24 22.0803C144.24 20.1923 144.544 18.4803 145.152 16.9443C145.76 15.4083 146.608 14.1123 147.696 13.0563C148.816 11.9683 150.144 11.1363 151.68 10.5603C153.216 9.98429 154.928 9.69629 156.816 9.69629C158.704 9.69629 160.416 10.0003 161.952 10.6083C163.488 11.1843 164.8 12.0163 165.888 13.1043C167.008 14.1603 167.872 15.4563 168.48 16.9923C169.088 18.5283 169.392 20.2243 169.392 22.0803ZM152.592 22.0803C152.592 24.0323 152.96 25.5363 153.696 26.5923C154.464 27.6163 155.52 28.1283 156.864 28.1283C158.208 28.1283 159.232 27.6003 159.936 26.5443C160.672 25.4883 161.04 24.0003 161.04 22.0803C161.04 20.1603 160.672 18.6883 159.936 17.6643C159.2 16.6083 158.16 16.0803 156.816 16.0803C155.472 16.0803 154.432 16.6083 153.696 17.6643C152.96 18.6883 152.592 20.1603 152.592 22.0803Z" fill="white"/>
<path id="t" d="M181.456 25.7761C181.456 26.6081 181.712 27.2001 182.224 27.5521C182.768 27.9041 183.52 28.0801 184.48 28.0801C184.96 28.0801 185.456 28.0481 185.968 27.9841C186.48 27.8881 186.928 27.7761 187.312 27.6481C187.6 28.0001 187.84 28.4001 188.032 28.8481C188.256 29.2641 188.368 29.7761 188.368 30.3841C188.368 31.6001 187.904 32.5921 186.976 33.3601C186.08 34.1281 184.48 34.5121 182.176 34.5121C179.36 34.5121 177.184 33.8721 175.648 32.5921C174.144 31.3121 173.392 29.2321 173.392 26.3521V5.80813C173.744 5.71213 174.24 5.61613 174.88 5.52013C175.552 5.39213 176.256 5.32812 176.992 5.32812C178.4 5.32812 179.488 5.58413 180.256 6.09613C181.056 6.57613 181.456 7.61613 181.456 9.21613V12.2881H187.744C187.936 12.6401 188.112 13.0881 188.272 13.6321C188.464 14.1441 188.56 14.7201 188.56 15.3601C188.56 16.4801 188.304 17.2961 187.792 17.8081C187.312 18.2881 186.656 18.5281 185.824 18.5281H181.456V25.7761Z" fill="white"/>
</g>
</g>
</svg>
