<svg width="32" height="32" viewBox="0 0 32 32" fill="none" xmlns="http://www.w3.org/2000/svg">
<g id="Linear / Like / Heart ">
<path id="Vector" d="M11.9488 25.2145L12.5679 24.4292L11.9488 25.2145ZM15.9998 7.33418L15.2793 8.02764C15.4679 8.2235 15.728 8.33418 15.9998 8.33418C16.2717 8.33418 16.5318 8.2235 16.7203 8.02764L15.9998 7.33418ZM20.0509 25.2145L20.6699 25.9998L20.0509 25.2145ZM12.5679 24.4292C10.547 22.8361 8.33726 21.2803 6.58422 19.3064C4.86546 17.371 3.6665 15.1127 3.6665 12.1828H1.6665C1.6665 15.7368 3.14717 18.4481 5.08879 20.6344C6.99614 22.7821 9.42753 24.5003 11.3297 25.9998L12.5679 24.4292ZM3.6665 12.1828C3.6665 9.31497 5.28699 6.91003 7.49898 5.89892C9.64793 4.91663 12.5354 5.17677 15.2793 8.02764L16.7203 6.64071C13.4645 3.25803 9.68529 2.70052 6.66752 4.07995C3.71279 5.43056 1.6665 8.56671 1.6665 12.1828H3.6665ZM11.3297 25.9998C12.0127 26.5382 12.7459 27.1124 13.4889 27.5466C14.2316 27.9806 15.0793 28.3333 15.9998 28.3333V26.3333C15.587 26.3333 15.1014 26.1723 14.498 25.8198C13.8949 25.4674 13.2693 24.9821 12.5679 24.4292L11.3297 25.9998ZM20.6699 25.9998C22.5721 24.5003 25.0035 22.7821 26.9109 20.6344C28.8525 18.4481 30.3332 15.7368 30.3332 12.1828H28.3332C28.3332 15.1127 27.1342 17.371 25.4155 19.3064C23.6624 21.2803 21.4526 22.8361 19.4318 24.4292L20.6699 25.9998ZM30.3332 12.1828C30.3332 8.56671 28.2869 5.43056 25.3322 4.07995C22.3144 2.70052 18.5352 3.25803 15.2793 6.64071L16.7203 8.02764C19.4643 5.17677 22.3517 4.91663 24.5007 5.89892C26.7127 6.91003 28.3332 9.31497 28.3332 12.1828H30.3332ZM19.4318 24.4292C18.7304 24.9821 18.1047 25.4674 17.5017 25.8198C16.8983 26.1723 16.4126 26.3333 15.9998 26.3333V28.3333C16.9204 28.3333 17.768 27.9806 18.5107 27.5466C19.2538 27.1124 19.987 26.5382 20.6699 25.9998L19.4318 24.4292Z" fill="#F4F7FF"/>
</g>
</svg>
