<svg width="30" height="30" viewBox="0 0 30 30" fill="none" xmlns="http://www.w3.org/2000/svg">
<g id="Bold / Like / Like">
<path id="Vector" d="M25.337 20.3312L26.2189 15.2315C26.4392 13.9578 25.4597 12.7928 24.1685 12.7928H17.6921C17.0502 12.7928 16.5615 12.2166 16.6653 11.5825L17.4937 6.52678C17.6283 5.70543 17.5898 4.865 17.3809 4.05941C17.2077 3.39205 16.6929 2.85619 16.0157 2.63866L15.8345 2.58044C15.4253 2.44897 14.9786 2.47957 14.5928 2.66549C14.1681 2.87014 13.8574 3.24342 13.7422 3.68736L13.1476 5.97968C12.9584 6.70904 12.6828 7.41306 12.3274 8.07827C11.8083 9.05021 11.0055 9.82808 10.1711 10.5471L8.37268 12.0969C7.86561 12.5338 7.59931 13.1882 7.65701 13.8555L8.67222 25.5963C8.76534 26.6733 9.66571 27.5 10.7454 27.5H16.5562C20.9078 27.5 24.6216 24.468 25.337 20.3312Z" fill="#FF01DD"/>
<path id="Vector_2" fill-rule="evenodd" clip-rule="evenodd" d="M3.70958 11.8564C4.21116 11.8347 4.64077 12.212 4.68401 12.7122L5.89851 26.7579C5.97653 27.6601 5.26585 28.4377 4.35838 28.4377C3.50361 28.4377 2.8125 27.7443 2.8125 26.8912V12.793C2.8125 12.2909 3.208 11.878 3.70958 11.8564Z" fill="#FF01DD"/>
</g>
</svg>
