<svg width="10" height="18" viewBox="0 0 10 18" fill="none" xmlns="http://www.w3.org/2000/svg">
<path id="Vector" d="M9.76383 8.43925L1.27781 0.213914C1.13622 0.0766005 0.948103 0 0.752481 0C0.556858 0 0.368743 0.0766005 0.22715 0.213914L0.218013 0.223208C0.149133 0.289775 0.094286 0.3699 0.0568066 0.458711C0.0193272 0.547521 0 0.64316 0 0.739808C0 0.836457 0.0193272 0.932096 0.0568066 1.02091C0.094286 1.10972 0.149133 1.18984 0.218013 1.25641L8.20915 9.00155L0.218013 16.7436C0.149133 16.8102 0.094286 16.8903 0.0568066 16.9791C0.0193272 17.0679 0 17.1635 0 17.2602C0 17.3568 0.0193272 17.4525 0.0568066 17.5413C0.094286 17.6301 0.149133 17.7102 0.218013 17.7768L0.22715 17.7861C0.368743 17.9234 0.556858 18 0.752481 18C0.948103 18 1.13622 17.9234 1.27781 17.7861L9.76383 9.56075C9.83846 9.48841 9.89787 9.40141 9.93847 9.30502C9.97907 9.20863 10 9.10486 10 9C10 8.89513 9.97907 8.79136 9.93847 8.69497C9.89787 8.59859 9.83846 8.51159 9.76383 8.43925Z" fill="#F4F7FF"/>
</svg>
