<svg width="21" height="22" viewBox="0 0 21 22" fill="none" xmlns="http://www.w3.org/2000/svg">
<g id="&#209;&#129;&#208;&#190;&#209;&#134; &#208;&#188;&#208;&#181;&#209;&#128;&#208;&#181;&#208;&#182;&#209;&#150;" clip-path="url(#clip0_134_3365)">
<path id="Vector" d="M7.00105 11C7.00105 8.97503 8.56756 7.33304 10.5005 7.33304C12.4334 7.33304 14.0008 8.97503 14.0008 11C14.0008 13.025 12.4334 14.667 10.5005 14.667C8.56756 14.667 7.00105 13.025 7.00105 11ZM5.10886 11C5.10886 14.1196 7.52269 16.6484 10.5005 16.6484C13.4783 16.6484 15.8921 14.1196 15.8921 11C15.8921 7.8804 13.4783 5.35163 10.5005 5.35163C7.52269 5.35163 5.10886 7.8804 5.10886 11ZM14.8456 5.12767C14.8455 5.38874 14.9193 5.64398 15.0576 5.86111C15.196 6.07824 15.3927 6.24751 15.6229 6.34752C15.8531 6.44752 16.1064 6.47377 16.3509 6.42294C16.5953 6.37211 16.8199 6.24649 16.9962 6.06195C17.1724 5.87742 17.2925 5.64227 17.3412 5.38624C17.39 5.1302 17.3651 4.86478 17.2698 4.62355C17.1746 4.38231 17.0131 4.17608 16.806 4.03095C16.5988 3.88582 16.3553 3.8083 16.1061 3.8082H16.1056C15.7715 3.80836 15.4512 3.94741 15.215 4.19481C14.9787 4.44221 14.8458 4.77773 14.8456 5.12767ZM6.25849 19.9537C5.23478 19.9049 4.67836 19.7263 4.3086 19.5753C3.81837 19.3754 3.4686 19.1373 3.10084 18.7525C2.73309 18.3678 2.50545 18.0017 2.31544 17.4882C2.1713 17.101 2.00078 16.5179 1.95424 15.4454C1.90334 14.2859 1.89318 13.9376 1.89318 11.0001C1.89318 8.06256 1.90418 7.71522 1.95424 6.55477C2.00086 5.48231 2.17264 4.90037 2.31544 4.51202C2.50629 3.99846 2.7336 3.63202 3.10084 3.24676C3.46809 2.8615 3.81753 2.62302 4.3086 2.42396C4.6782 2.27295 5.23478 2.09431 6.25849 2.04556C7.36527 1.99223 7.69774 1.98158 10.5005 1.98158C13.3032 1.98158 13.636 1.99311 14.7437 2.04556C15.7675 2.0944 16.323 2.27436 16.6936 2.42396C17.1839 2.62302 17.5336 2.86202 17.9014 3.24676C18.2691 3.6315 18.4959 3.99846 18.6868 4.51202C18.8309 4.89922 19.0015 5.48231 19.048 6.55477C19.0989 7.71522 19.1091 8.06256 19.1091 11.0001C19.1091 13.9376 19.0989 14.285 19.048 15.4454C19.0014 16.5179 18.83 17.1008 18.6868 17.4882C18.4959 18.0017 18.2686 18.3682 17.9014 18.7525C17.5341 19.1369 17.1839 19.3754 16.6936 19.5753C16.324 19.7263 15.7675 19.905 14.7437 19.9537C13.637 20.0071 13.3045 20.0177 10.5005 20.0177C7.69649 20.0177 7.36494 20.0071 6.25849 19.9537ZM6.17155 0.066616C5.05376 0.119944 4.28995 0.305624 3.6229 0.577544C2.93209 0.858352 2.34728 1.23508 1.76289 1.84633C1.1785 2.45758 0.819824 3.0712 0.55178 3.79491C0.29222 4.49416 0.11498 5.2939 0.0640763 6.46492C0.0123323 7.63778 0.000488281 8.01275 0.000488281 11C0.000488281 13.9872 0.0123323 14.3622 0.0640763 15.5351C0.11498 16.7062 0.29222 17.5058 0.55178 18.2051C0.819824 18.9284 1.17859 19.5427 1.76289 20.1537C2.3472 20.7647 2.93209 21.1409 3.6229 21.4225C4.29121 21.6944 5.05376 21.8801 6.17155 21.9334C7.29169 21.9867 7.64902 22 10.5005 22C13.352 22 13.7099 21.9876 14.8294 21.9334C15.9473 21.8801 16.7106 21.6944 17.3781 21.4225C18.0685 21.1409 18.6537 20.7649 19.2381 20.1537C19.8225 19.5424 20.1804 18.9284 20.4492 18.2051C20.7088 17.5058 20.8868 16.7061 20.9369 15.5351C20.9878 14.3613 20.9996 13.9872 20.9996 11C20.9996 8.01275 20.9878 7.63778 20.9369 6.46492C20.886 5.29382 20.7088 4.49372 20.4492 3.79491C20.1804 3.07164 19.8215 2.45854 19.2381 1.84633C18.6546 1.23411 18.0685 0.858352 17.3789 0.577544C16.7106 0.305624 15.9472 0.119064 14.8303 0.066616C13.7107 0.013288 13.3528 0 10.5013 0C7.64986 0 7.29169 0.012408 6.17155 0.066616Z" fill="#F4F7FF"/>
<path id="Vector_2" d="M7.00105 11C7.00105 8.97503 8.56756 7.33304 10.5005 7.33304C12.4334 7.33304 14.0008 8.97503 14.0008 11C14.0008 13.025 12.4334 14.667 10.5005 14.667C8.56756 14.667 7.00105 13.025 7.00105 11ZM5.10886 11C5.10886 14.1196 7.52269 16.6484 10.5005 16.6484C13.4783 16.6484 15.8921 14.1196 15.8921 11C15.8921 7.8804 13.4783 5.35163 10.5005 5.35163C7.52269 5.35163 5.10886 7.8804 5.10886 11ZM14.8456 5.12767C14.8455 5.38874 14.9193 5.64398 15.0576 5.86111C15.196 6.07824 15.3927 6.24751 15.6229 6.34752C15.8531 6.44752 16.1064 6.47377 16.3509 6.42294C16.5953 6.37211 16.8199 6.24649 16.9962 6.06195C17.1724 5.87742 17.2925 5.64227 17.3412 5.38624C17.39 5.1302 17.3651 4.86478 17.2698 4.62355C17.1746 4.38231 17.0131 4.17608 16.806 4.03095C16.5988 3.88582 16.3553 3.8083 16.1061 3.8082H16.1056C15.7715 3.80836 15.4512 3.94741 15.215 4.19481C14.9787 4.44221 14.8458 4.77773 14.8456 5.12767ZM6.25849 19.9537C5.23478 19.9049 4.67836 19.7263 4.3086 19.5753C3.81837 19.3754 3.4686 19.1373 3.10084 18.7525C2.73309 18.3678 2.50545 18.0017 2.31544 17.4882C2.1713 17.101 2.00078 16.5179 1.95424 15.4454C1.90334 14.2859 1.89318 13.9376 1.89318 11.0001C1.89318 8.06256 1.90418 7.71522 1.95424 6.55477C2.00086 5.48231 2.17264 4.90037 2.31544 4.51202C2.50629 3.99846 2.7336 3.63202 3.10084 3.24676C3.46809 2.8615 3.81753 2.62302 4.3086 2.42396C4.6782 2.27295 5.23478 2.09431 6.25849 2.04556C7.36527 1.99223 7.69774 1.98158 10.5005 1.98158C13.3032 1.98158 13.636 1.99311 14.7437 2.04556C15.7675 2.0944 16.323 2.27436 16.6936 2.42396C17.1839 2.62302 17.5336 2.86202 17.9014 3.24676C18.2691 3.6315 18.4959 3.99846 18.6868 4.51202C18.8309 4.89922 19.0015 5.48231 19.048 6.55477C19.0989 7.71522 19.1091 8.06256 19.1091 11.0001C19.1091 13.9376 19.0989 14.285 19.048 15.4454C19.0014 16.5179 18.83 17.1008 18.6868 17.4882C18.4959 18.0017 18.2686 18.3682 17.9014 18.7525C17.5341 19.1369 17.1839 19.3754 16.6936 19.5753C16.324 19.7263 15.7675 19.905 14.7437 19.9537C13.637 20.0071 13.3045 20.0177 10.5005 20.0177C7.69649 20.0177 7.36494 20.0071 6.25849 19.9537ZM6.17155 0.066616C5.05376 0.119944 4.28995 0.305624 3.6229 0.577544C2.93209 0.858352 2.34728 1.23508 1.76289 1.84633C1.1785 2.45758 0.819824 3.0712 0.55178 3.79491C0.29222 4.49416 0.11498 5.2939 0.0640763 6.46492C0.0123323 7.63778 0.000488281 8.01275 0.000488281 11C0.000488281 13.9872 0.0123323 14.3622 0.0640763 15.5351C0.11498 16.7062 0.29222 17.5058 0.55178 18.2051C0.819824 18.9284 1.17859 19.5427 1.76289 20.1537C2.3472 20.7647 2.93209 21.1409 3.6229 21.4225C4.29121 21.6944 5.05376 21.8801 6.17155 21.9334C7.29169 21.9867 7.64902 22 10.5005 22C13.352 22 13.7099 21.9876 14.8294 21.9334C15.9473 21.8801 16.7106 21.6944 17.3781 21.4225C18.0685 21.1409 18.6537 20.7649 19.2381 20.1537C19.8225 19.5424 20.1804 18.9284 20.4492 18.2051C20.7088 17.5058 20.8868 16.7061 20.9369 15.5351C20.9878 14.3613 20.9996 13.9872 20.9996 11C20.9996 8.01275 20.9878 7.63778 20.9369 6.46492C20.886 5.29382 20.7088 4.49372 20.4492 3.79491C20.1804 3.07164 19.8215 2.45854 19.2381 1.84633C18.6546 1.23411 18.0685 0.858352 17.3789 0.577544C16.7106 0.305624 15.9472 0.119064 14.8303 0.066616C13.7107 0.013288 13.3528 0 10.5013 0C7.64986 0 7.29169 0.012408 6.17155 0.066616Z" fill="#F4F7FF"/>
</g>
<defs>
<clipPath id="clip0_134_3365">
<rect width="21" height="22" fill="white"/>
</clipPath>
</defs>
</svg>
