<svg width="30" height="24" viewBox="0 0 30 24" fill="none" xmlns="http://www.w3.org/2000/svg">
<g id="&#209;&#129;&#208;&#190;&#209;&#134; &#208;&#188;&#208;&#181;&#209;&#128;&#208;&#181;&#208;&#182;&#209;&#150;" clip-path="url(#clip0_134_3367)">
<path id="Vector" d="M11.4626 23.5001C19.8585 23.5001 24.45 15.5805 24.45 8.71285C24.45 8.48794 24.446 8.26406 24.437 8.0411C25.3304 7.30507 26.1015 6.39375 26.7139 5.34986C25.8961 5.76387 25.0159 6.04251 24.0926 6.16815C25.0351 5.52475 25.7585 4.50688 26.0999 3.29358C25.2039 3.89879 24.2236 4.32542 23.2014 4.5551C22.3685 3.5449 21.1826 2.91309 19.8695 2.91309C17.3488 2.91309 15.3047 5.24055 15.3047 8.1095C15.3047 8.51738 15.3448 8.91399 15.4231 9.29454C11.6294 9.07719 8.26541 7.00912 6.01405 3.86451C5.60856 4.65765 5.39528 5.55906 5.39599 6.47669C5.39599 8.27981 6.20181 9.87154 7.42726 10.8028C6.70239 10.7776 5.99343 10.5547 5.36 10.1528C5.35932 10.1746 5.35932 10.1958 5.35932 10.2192C5.35932 12.7361 6.93269 14.8375 9.02131 15.3137C8.62904 15.4353 8.22426 15.4968 7.81769 15.4966C7.52408 15.4966 7.23793 15.4637 6.95983 15.4029C7.54095 17.4679 9.22602 18.9706 11.2239 19.0126C9.66157 20.4068 7.69356 21.2372 5.55462 21.2372C5.19076 21.2376 4.8272 21.2135 4.46582 21.1652C6.48597 22.6395 8.8847 23.4997 11.4629 23.4997" fill="#F4F7FF"/>
</g>
<defs>
<clipPath id="clip0_134_3367">
<rect width="30" height="23" fill="white" transform="translate(0 0.5)"/>
</clipPath>
</defs>
</svg>
